# xmcd
#
# Track frame offsets:
#	150
#	15902
#	31185
#	47742
#	73007
#	85142
#	106320
#	123680
#	142217
#	159222
#	171592
#	184357
#
# Disc length: 2626 seconds
#
# Revision: 0
# Processed by: cddbd v1.5.2PL0 Copyright (c) Steve Scherf et al.
# Submitted via: audiograbber 1.83.01
#
DISCID=a30a400c
DTITLE=De Las Alturas de Los Andes - Mesagem Celestial - Vol 04
DYEAR=1900
DGENRE=Gospel
TTITLE0=Grata Nova
TTITLE1=Lugar de Delicias
TTITLE2=O Senhor da Ceifa Chama
TTITLE3=A Cidade Santa
TTITLE4=Jesus Voltará
TTITLE5=A Face Adorada de Jesus
TTITLE6=Ao Passar o Jardão
TTITLE7=A Mensagem da Cruz
TTITLE8=Glória ao Senhor
TTITLE9=Eu Marquei um Encontro com Deus
TTITLE10=Amigo Inconparável
TTITLE11=Segurança
EXTD=
EXTT0=
EXTT1=
EXTT2=
EXTT3=
EXTT4=
EXTT5=
EXTT6=
EXTT7=
EXTT8=
EXTT9=
EXTT10=
EXTT11=
PLAYORDER=
